<svg width="14" height="13" fill="none" xmlns="http://www.w3.org/2000/svg"><path d="M6.91 4.485a2.087 2.087 0 00-2.082 2.083c0 1.147.936 2.083 2.083 2.083a2.087 2.087 0 002.083-2.083A2.087 2.087 0 006.91 4.485zm6.248 2.083c0-.862.007-1.717-.041-2.578-.049-1-.277-1.888-1.008-2.619C11.376.638 10.49.411 9.49.363 8.628.315 7.773.323 6.912.323c-.862 0-1.717-.008-2.578.04-1 .049-1.887.277-2.619 1.008C.983 2.104.756 2.99.708 3.99.659 4.852.667 5.707.667 6.568c0 .861-.008 1.717.04 2.578.049 1 .277 1.888 1.008 2.619.733.733 1.62.96 2.62 1.008.862.048 1.716.04 2.577.04.863 0 1.717.008 2.578-.04 1-.049 1.888-.277 2.62-1.008.732-.733.959-1.619 1.007-2.619.05-.86.04-1.715.04-2.578zM6.91 9.773a3.2 3.2 0 01-3.205-3.205A3.2 3.2 0 016.91 3.363a3.2 3.2 0 013.204 3.205A3.2 3.2 0 016.91 9.773zm3.336-5.792a.748.748 0 110-1.497.748.748 0 110 1.497z" fill="#fff"/></svg>