<svg width="40" height="57" fill="none" xmlns="http://www.w3.org/2000/svg"><path d="M20.9 36.1H19v-5.7a.95.95 0 10-1.9 0v5.7c0 1.05.85 1.9 1.9 1.9h1.9a.95.95 0 100-1.9z" fill="#F8870F"/><path d="M38.95 15.2a.95.95 0 100-1.9h-3.895A4.759 4.759 0 0030.4 9.5h-.95V5.67a4.704 4.704 0 00.95-2.82V1.9h.95a.95.95 0 100-1.9h-11.4a.95.95 0 100 1.9h.95v.95a4.704 4.704 0 00.95 2.82V9.5h-.95a4.759 4.759 0 00-4.655 3.8H12.35a.95.95 0 100 1.9h.363l1.204 2.408A1.888 1.888 0 0013.3 19v13.3H8.55v-1.9h.95a.95.95 0 100-1.9h-.95v-.95a.95.95 0 10-1.9 0v.95H5.7a.95.95 0 100 1.9h.95v1.9h-1.9a3.8 3.8 0 00-3.8 3.8v3.8a.95.95 0 100 1.9h5.7a.95.95 0 100-1.9V38h6.982a5.71 5.71 0 004.418 3.715v.085a3.8 3.8 0 002.85 3.665v2.17a3.8 3.8 0 00-2.85 3.665 3.8 3.8 0 00-3.8 3.8c0 1.05.85 1.9 1.9 1.9h19a1.9 1.9 0 001.9-1.9 3.8 3.8 0 00-3.8-3.8 3.8 3.8 0 00-2.85-3.665v-2.17a3.8 3.8 0 002.85-3.665v-.085A5.706 5.706 0 0038 36.1V19a1.888 1.888 0 00-.617-1.392l1.204-2.408h.363zM28.5 1.9v.95a2.85 2.85 0 01-5.7 0V1.9h5.7zm-4.75 5.297c1.21.537 2.59.537 3.8 0V9.5h-3.8V7.197zM20.9 11.4h9.5a2.85 2.85 0 012.675 1.9h-14.85a2.85 2.85 0 012.675-1.9zM6.65 36.1a1.9 1.9 0 00-1.9 1.9v1.9h-1.9v-3.8c0-1.05.85-1.9 1.9-1.9h8.55v1.9H6.65zM28.5 47.5h-5.7v-1.9h5.7v1.9zm6.65 7.6h-19c0-1.05.85-1.9 1.9-1.9h15.2c1.05 0 1.9.85 1.9 1.9zm-3.8-3.8h-11.4c0-1.05.85-1.9 1.9-1.9h7.6c1.05 0 1.9.85 1.9 1.9zm-1.9-7.6h-7.6a1.9 1.9 0 01-1.9-1.9h11.4a1.9 1.9 0 01-1.9 1.9zm6.65-7.6a3.8 3.8 0 01-3.8 3.8H19a3.8 3.8 0 01-3.8-3.8V19h20.9v17.1zm-.587-19H15.787l-.95-1.9h21.626l-.95 1.9z" fill="#F8870F"/><path d="M30.4 20.9h-9.5a1.9 1.9 0 00-1.9 1.9v1.9c0 1.05.85 1.9 1.9 1.9h.493l2.29 2.863a.944.944 0 00.067 1.887h3.8a.944.944 0 00.066-1.887l2.291-2.863h.493a1.9 1.9 0 001.9-1.9v-1.9a1.9 1.9 0 00-1.9-1.9zm-4.75 7.98l-1.823-2.28h3.646l-1.823 2.28zM20.9 24.7v-1.9h9.5v1.9h-9.5zM24.7 38a.95.95 0 100-1.9.95.95 0 000 1.9z" fill="#F8870F"/></svg>