<svg width="15" height="13" fill="none" xmlns="http://www.w3.org/2000/svg"><path d="M15 1.923c-.59.254-1.18.413-1.77.476A2.986 2.986 0 0014.58.705c-.609.362-1.26.61-1.95.742a2.964 2.964 0 00-2.247-.97c-.85 0-1.575.3-2.175.899-.6.6-.9 1.324-.9 2.175 0 .228.026.463.077.704a8.566 8.566 0 01-3.536-.947 8.715 8.715 0 01-2.803-2.27c-.28.476-.419.993-.419 1.551 0 .527.124 1.016.371 1.466.248.45.581.815 1 1.095a3.05 3.05 0 01-1.39-.39v.037c0 .743.233 1.395.7 1.956a3.024 3.024 0 001.765 1.062c-.266.07-.536.104-.809.104-.178 0-.371-.016-.58-.047A3.009 3.009 0 002.77 9.39a3 3 0 001.789.614 6.02 6.02 0 01-3.817 1.313A6.44 6.44 0 010 11.279a8.538 8.538 0 004.72 1.38 8.982 8.982 0 003.075-.519c.958-.345 1.777-.809 2.456-1.39a9.3 9.3 0 001.756-2.003 8.936 8.936 0 001.099-2.365 8.738 8.738 0 00.352-2.87A6.438 6.438 0 0015 1.924z" fill="#fff" fill-opacity=".5"/></svg>