<svg width="17" height="11" fill="none" xmlns="http://www.w3.org/2000/svg"><path d="M16.578 9.401a1.142 1.142 0 00-.056-.108c-.29-.521-.842-1.16-1.658-1.918l-.017-.018-.008-.008-.01-.009h-.008c-.37-.353-.605-.59-.703-.711-.18-.232-.22-.466-.121-.703.069-.18.33-.558.78-1.137.238-.307.426-.552.565-.738 1-1.33 1.434-2.18 1.301-2.55l-.051-.087c-.035-.052-.125-.1-.27-.144a1.366 1.366 0 00-.555-.021l-2.499.017a.324.324 0 00-.174.004l-.112.027-.044.021-.034.026a.384.384 0 00-.096.091.594.594 0 00-.086.152c-.273.7-.582 1.351-.93 1.953-.213.358-.41.67-.59.933a4.49 4.49 0 01-.45.58 3.144 3.144 0 01-.33.3c-.099.076-.174.107-.226.096a6.357 6.357 0 01-.147-.035.577.577 0 01-.195-.213.95.95 0 01-.1-.338 3.713 3.713 0 01-.03-.352 7.313 7.313 0 01.004-.416c.006-.18.008-.3.008-.365 0-.22.005-.458.013-.716l.022-.611c.006-.15.009-.31.009-.478 0-.167-.01-.299-.03-.394a1.35 1.35 0 00-.092-.278.468.468 0 00-.177-.208A1.003 1.003 0 009.19.927 5.775 5.775 0 008.018.815c-1.076-.012-1.767.058-2.074.208-.121.064-.231.15-.33.26-.104.128-.118.197-.043.209.347.052.593.176.738.373l.052.104c.04.075.08.208.121.399.04.19.067.402.078.633.03.423.03.784 0 1.085-.029.301-.056.535-.082.703a1.408 1.408 0 01-.221.599.15.15 0 01-.044.043.65.65 0 01-.234.044c-.081 0-.18-.041-.295-.122a2.083 2.083 0 01-.36-.334 4.466 4.466 0 01-.421-.595 10.374 10.374 0 01-.486-.902l-.139-.252a21.642 21.642 0 01-.356-.707c-.15-.31-.283-.609-.399-.898a.572.572 0 00-.208-.278l-.043-.026a.921.921 0 00-.338-.13l-2.379.017c-.242 0-.407.055-.494.165l-.035.052a.28.28 0 00-.026.14.69.69 0 00.052.233 28.64 28.64 0 001.132 2.36A26.53 26.53 0 002.247 6.03c.301.462.608.9.92 1.31.313.41.52.674.62.79.102.115.182.202.24.26l.216.208c.14.139.343.305.612.5.27.193.567.384.894.572a4.86 4.86 0 001.141.46c.434.118.856.166 1.267.143h.998c.202-.017.356-.081.46-.19l.034-.044a.573.573 0 00.065-.16.881.881 0 00.03-.24 2.86 2.86 0 01.057-.672c.043-.2.093-.35.148-.451a1.109 1.109 0 01.334-.382.57.57 0 01.07-.03c.138-.046.302-.002.49.134s.364.304.53.504c.164.2.362.424.593.672.232.25.434.434.608.556l.173.104c.116.07.267.133.452.19a.97.97 0 00.486.044l2.221-.034c.22 0 .39-.037.512-.11.122-.071.194-.151.217-.238a.672.672 0 00.004-.295c-.02-.11-.04-.186-.06-.23z" fill="#fff" fill-opacity=".5"/></svg>